<?xml version="1.0" encoding="utf-8"?>
<!-- Generator: Adobe Illustrator 23.0.2, SVG Export Plug-In . SVG Version: 6.00 Build 0)  -->
<svg version="1.1" id="Layer_1" xmlns="http://www.w3.org/2000/svg" xmlns:xlink="http://www.w3.org/1999/xlink" x="0px" y="0px"
	 width="64px" height="64px" viewBox="0 0 64 64" style="enable-background:new 0 0 64 64;" xml:space="preserve">
<style type="text/css">
	.st0{fill:#B7E4F4;}
	.st1{fill:#1D8DCD;}
</style>
<g>
	<path class="st0" d="M21.1,21c0,0-3.2-0.2-5.6,3.5c0,0-3.5,4.1-1.4,10.7c0,0,1.6,10.8,7,13.9c0,0,10.5,11.7,14.7,6.8
		c0,0,7.2-6.7,6.7-14.4c0,0-0.7-3.9,0.3-5.8l2.4-6.8c0,0-2.2-6.7-5.7-11c-0.6-0.8-1.2-1.5-1.7-2.2c0,0-7.7-3.9-13.4,0
		C24.5,15.7,20.5,17.2,21.1,21z"/>
	<path class="st1" d="M32.8,5.6c0.1,1.1,0.3,2.2,0.3,3.3c0,1.1-0.4,2.1-0.6,3.4c0.2-0.2,0.2-0.4,0.4-0.5c1.3-1.5,2.4-3.1,3.3-4.9
		c0.1-0.3,0.3-0.4,0.7-0.3c1.6,0.4,3.2,0.7,4.9,1c-1,2.8-2.6,5.2-4.5,7.4c0.8,1,1.5,1.9,2.3,3c-1.9,0.7-3.6,1.4-5.4,2.1
		c-0.2-0.3-0.3-0.5-0.5-0.7c-1.2-1.6-2.9-2-4.7-1c-1.7,0.9-2.7,2.4-3.3,4.2c-0.7,2.1-0.7,4.2-0.3,6.4c0.2,1-0.1,1.7-1,2
		c-1.3,0.5-2.6,0.5-3.9-0.2c-0.4-0.2-0.7-0.6-0.8-1C18.5,25.2,19,21,21.5,17c1.3-2,3-3.3,5.3-4.1c0.2-0.1,0.5-0.3,0.6-0.5
		c0.8-1.7,0.9-3.5,0.8-5.3c0-0.5-0.1-1-0.2-1.5C29.6,5.6,31.2,5.6,32.8,5.6z"/>
	<path class="st1" d="M31.7,58.4c-3.2-0.8-5.5-3-7.8-5.2c-2.2-2.1-4.4-4.3-6.5-6.5c-2.1-2.1-3.5-4.6-3.9-7.5c-0.1-1,0-1.9,0-2.9
		c0-0.4,0-0.7-0.2-1c-1.5-2.4-1.5-4.9-0.4-7.5c0.8-2,2.2-3.7,3.9-5c0.1-0.1,0.2-0.1,0.4-0.2c-0.1,0.8-0.2,1.6-0.2,2.4
		c0,0.6-0.2,1.1-0.6,1.6c-1.2,1.6-2,3.3-1.7,5.4c0,0.2,0.1,0.4,0.1,0.7c0.2-0.3,0.3-0.4,0.5-0.6c0.4-0.5,1.1-0.6,1.7-0.2
		c0.5,0.4,0.7,1.1,0.3,1.6c-2.2,3.2-1.6,6.4,0.2,9.5c0.4,0.7,0.9,1.4,1.5,1.9c2.6,2.6,5.2,5.2,7.9,7.7c1.1,1,2.3,1.9,3.5,2.7
		c1.1,0.8,2.3,0.7,3.5,0.2c1.9-0.9,3.3-2.3,4.5-4c1.7-2.3,2.9-4.9,3.3-7.7c0.3-1.8,0.1-3.6-0.6-5.2c0-0.1-0.1-0.2-0.1-0.3
		c-0.5-0.9-0.3-1.7,0.4-2.4c0.8-0.9,1.4-1.9,1.7-3.1c0.4-1.6,0.1-3.1-0.8-4.5c-0.1-0.1-0.2-0.3-0.2-0.4c0,0,0,0,0-0.2
		c0.8,0,1.7-0.1,2.5-0.1c0.1,0,0.3,0.2,0.4,0.4c1.2,2.5,1,5-0.3,7.4c-0.3,0.6-0.8,1.1-1.1,1.7c-0.1,0.1-0.2,0.4-0.1,0.5
		c1.3,3.1,1.1,6.1,0.1,9.2c-1.1,3.5-3,6.6-5.8,9c-1.5,1.3-3.1,2.2-5,2.6C32.4,58.4,32,58.4,31.7,58.4z"/>
	<path class="st1" d="M36.7,36.7c0.4,1.9,0.2,3.8-0.3,5.5c-0.3,1.1-0.3,2.2,0,3.2c0.3,1.3,0.6,2.5,0.4,3.9c0,0.2-0.1,0.4-0.1,0.6
		c-0.1,0.5-0.5,0.8-0.9,0.7c-0.5-0.1-0.7-0.5-0.7-1c0.2-1.1,0.1-2.1-0.2-3.2c-0.1,0.2-0.2,0.4-0.3,0.5c-0.7,1.4-1.4,2.8-2.1,4.2
		c-0.2,0.4-0.5,0.6-0.9,0.5c-0.3-0.1-0.5-0.4-0.6-0.7c-0.1-0.2,0.1-0.5,0.2-0.7c0.8-1.7,1.6-3.3,2.4-5c0.3-0.6,0.5-1.3,0.7-2
		c-0.1,0.1-0.3,0.2-0.4,0.3c-1.5,1.1-3.2,2-4.9,2.6c-0.1,0-0.2,0.1-0.3,0.1c-0.6,0.2-1,0-1.1-0.5c-0.2-0.5,0.1-0.9,0.6-1.1
		c1.5-0.5,2.9-1.2,4.3-2.1c0.5-0.3,0.9-0.7,1.4-1c1.6-1.2,1.9-2.7,1.4-4.5c-0.2-0.9-0.6-1.6-1.3-2.2c-0.5-0.4-0.8-1-0.7-1.7
		c0.3-1.8,0.4-3.5,0.2-5.3c0-0.2,0.2-0.6,0.4-0.7c3.4-2.4,7.2-3.6,11.3-3.4c1.8,0.1,3.6,0.4,5.4,1c0.1,0,0.2,0.1,0.3,0.1
		c0.5,0.2,0.7,0.6,0.6,1c-0.1,0.4-0.5,0.6-1.1,0.5c-0.9-0.2-1.7-0.5-2.6-0.6c-4.4-0.9-8.5-0.1-12.3,2.3c-0.3,0.2-0.4,0.4-0.4,0.7
		c0,1.5-0.1,2.9-0.2,4.4c0,0.4,0.1,0.6,0.4,0.7c1,0.6,2.1,1.2,3.1,1.9c0.5,0.3,0.6,0.7,0.3,1.1c-0.3,0.4-0.7,0.5-1.2,0.2
		C37.2,37,37,36.9,36.7,36.7z"/>
	<path class="st1" d="M30.1,20.1c0.9-0.5,1.7-0.3,2.3,0.6c0.3,0.5,0.6,1,1,1.6c0.3-0.1,0.5-0.3,0.8-0.4c5.1-2.6,10.4-2.9,15.9-1.4
		c0.4,0.1,0.8,0.2,1.1,0.3c0.6,0.2,0.8,0.5,0.7,1c-0.1,0.5-0.6,0.7-1.1,0.5c-1.1-0.3-2.2-0.6-3.3-0.8c-4.9-0.9-9.4-0.1-13.7,2.4
		c-0.2,0.1-0.4,0.3-0.6,0.2c-0.3-0.1-0.7-0.2-0.8-0.4C31.5,22.6,30.8,21.4,30.1,20.1z"/>
	<path class="st1" d="M27.7,23c0.7,1.1,1.1,2.2,1.4,3.4c0.4,1.7,0.5,3.4,0.4,5.2c-0.1,1.1-0.8,1.9-2,2c-0.9,0.1-1.7,0.2-2.6,0.2
		c-0.5,0-0.9-0.2-1-0.6c-0.1-0.4,0.1-0.9,0.6-1c0.8-0.1,1.7-0.2,2.5-0.3c0.6,0,0.7-0.1,0.7-0.7c0.1-1.8-0.1-3.7-0.6-5.4
		C27.1,25.2,27.3,23.7,27.7,23z"/>
	<path class="st1" d="M21.9,13.4c-0.4,0.3-0.7,0.7-1.1,1c-0.1,0.1-0.3,0.1-0.5,0.1c-1.1-0.2-2.2-0.4-3.3-0.7
		c-0.5-0.1-0.8-0.4-0.8-0.9c0.1-0.5,0.5-0.8,1-0.7c1.5,0.3,3,0.6,4.6,0.9C21.9,13.3,21.9,13.4,21.9,13.4z"/>
	<path class="st1" d="M19,17c-0.3,0.5-0.5,1-0.7,1.5c-1.2-0.3-2.5-0.6-3.7-0.9c-0.4-0.1-0.7-0.5-0.5-1c0.1-0.4,0.5-0.7,0.9-0.6
		C16.3,16.3,17.7,16.7,19,17z"/>
</g>
</svg>
