<?xml version="1.0" encoding="utf-8"?>
<!-- Generator: Adobe Illustrator 23.0.2, SVG Export Plug-In . SVG Version: 6.00 Build 0)  -->
<svg version="1.1" id="Layer_1" xmlns="http://www.w3.org/2000/svg" xmlns:xlink="http://www.w3.org/1999/xlink" x="0px" y="0px"
	 width="64px" height="64px" viewBox="0 0 64 64" style="enable-background:new 0 0 64 64;" xml:space="preserve">
<style type="text/css">
	.st0{fill:#B7E4F4;}
	.st1{fill:#1587BB;}
</style>
<g>
	<path class="st0" d="M12.6,41.2c0,0-1.5,4.4,2.4,4.9c0,0,2.4,1,7.3,1c0,0,13.1,10.2,28.7-3.4c0,0,9.2-11.2,0.5-24.3
		c0,0-7.3-10.7-17-3.9l-2.9,2.9c0,0-2.4,0-4.4-2.4c0,0-4.4,0.5-3.9,4.9c0,0-0.7,1.7,7,4.1c0,0,1.9,1.5,3.4,4.9v5.3l-3.4,3.4
		l-6.8,1.9C23.5,40.4,14.7,37.5,12.6,41.2z"/>
	<path class="st1" d="M50.3,37c-2.1,5.2-6,8.5-11.4,10c-5.5,1.5-10.5,0.4-15.1-3.1c1.7-0.6,3.2-1.4,4.9-1.3c0.9,0.1,1.7,0.1,2.6,0.1
		c0.9,0,1.7-0.4,2.2-1.2c0-0.1,0.1-0.1,0.1-0.2c0.7-1.4,1.7-2.4,3-3.2c0.1-0.1,0.2-0.1,0.3-0.2c1.1-1.3,2.6-1.5,4.2-1.6
		c1.6-0.1,3.3-0.1,4.9,0c1.4,0.1,2.8,0.3,4.2,0.5C50.2,36.8,50.3,36.9,50.3,37z"/>
	<path class="st1" d="M56.5,31.8c-0.1,0.9-0.2,1.9-0.4,2.8C55,41,51.6,45.8,45.9,48.9c-4.3,2.3-8.9,3.3-13.8,2.9
		c-3.4-0.3-6.5-1.2-9.3-3.3c-0.1-0.1-0.4-0.2-0.6-0.1c-2.1,0.2-4.1,0-5.9-1.3c-0.5-0.4-0.9-0.3-1.3,0.2c-0.6,0.8-0.7,1.7-0.8,2.7
		c0,0.2,0,0.3,0,0.5c-0.1,0.6-0.5,1-1,1c-0.6,0-1.1-0.3-1.1-0.9c-0.1-1.7,0.2-3.4,1.4-4.7c1.1-1.3,2.6-1.6,4-0.7
		c1.6,1,3.3,1.2,5.1,0.9c0.5-0.1,0.9,0,1.3,0.3c2.6,2.1,5.6,3,8.9,3.2c4.6,0.3,8.9-0.7,12.8-3c4.8-2.8,7.6-7.1,8.5-12.6
		c0.7-4.4,0.1-8.6-2.1-12.5c-1.6-2.9-3.9-5.2-7-6.4c-3-1.1-6-1-8.8,0.6c-1.1,0.7-2,1.6-2.6,2.8c-0.3,0.7-0.8,0.9-1.6,0.9
		c-3.2-0.2-6.1-2.4-7.2-5.4c-0.2-0.6,0-1.3,0.6-1.5c0.6-0.2,1.2,0,1.5,0.7c0.5,1.3,1.3,2.4,2.6,3.1c0.6,0.3,1.2,0.5,1.9,0.7
		c0.1,0,0.4-0.1,0.5-0.2c2.4-3.8,6.1-5,10.3-4.7c4.7,0.3,8.1,2.8,10.8,6.5c2.2,3.1,3.4,6.7,3.7,10.5c0,0.2,0.1,0.3,0.1,0.5
		C56.5,30.4,56.5,31.1,56.5,31.8z"/>
	<path class="st1" d="M7.5,48.1c0.2-0.8,0.3-1.7,0.5-2.5c1.2-4.7,5.1-7.5,9.9-7.2c1.6,0.1,3.1,0.4,4.5,1c0.3,0.1,0.5,0.1,0.8,0
		c2-1.1,4.2-1.8,6.5-1.7c0.1,0,0.4-0.1,0.4-0.3c0.7-1.1,1.6-2,2.6-2.7c0.1-0.1,0.2-0.4,0.2-0.5c0-1.2,0-2.4,0-3.6
		c0-0.2-0.1-0.4-0.2-0.6c-0.9-1.1-1.6-2.3-2.1-3.6c-0.1-0.3-0.2-0.4-0.5-0.5c-1.3-0.4-2.6-0.8-3.8-1.3c-2.9-1.2-5-3.2-6.4-6
		c-0.3-0.7-0.6-1.4-0.9-2.1c-0.3-0.7,0-1.3,0.6-1.6c0.6-0.3,1.2,0.1,1.5,0.7c0.6,1.2,1.1,2.4,1.8,3.5c1.2,1.7,2.8,2.9,4.8,3.6
		c1.2,0.4,2.4,0.9,3.7,1.2c0.7,0.2,1,0.6,1.2,1.3c0.4,1.4,1,2.7,2.1,3.7c0.4,0.4,0.6,0.9,0.5,1.5c-0.3,1.4-0.3,2.8,0.1,4.3
		c0.2,0.8,0,1.2-0.7,1.6c-1.3,0.7-2.2,1.7-2.9,3.1c-0.3,0.5-0.6,0.8-1.2,0.8c-2.3-0.2-4.5,0.4-6.4,1.6c-0.8,0.5-1.5,0.5-2.3,0.1
		c-2-0.9-4.1-1.3-6.2-0.8c-2.9,0.7-5.1,3-5.5,6.1c-0.2,1.1-0.1,2.2-0.1,3.3c0,0.7-0.4,1.3-1,1.3c-0.7,0-1.1-0.4-1.2-1.1
		c0-0.2-0.1-0.3-0.1-0.5C7.5,49.2,7.5,48.6,7.5,48.1z"/>
</g>
</svg>
