<?xml version="1.0" encoding="utf-8"?>
<!-- Generator: Adobe Illustrator 23.0.2, SVG Export Plug-In . SVG Version: 6.00 Build 0)  -->
<svg version="1.1" id="Layer_1" xmlns="http://www.w3.org/2000/svg" xmlns:xlink="http://www.w3.org/1999/xlink" x="0px" y="0px"
	 width="64px" height="64px" viewBox="0 0 64 64" style="enable-background:new 0 0 64 64;" xml:space="preserve">
<style type="text/css">
	.st0{fill:#1D8DCD;}
	.st1{fill:#B7E4F4;}
</style>
<g>
	<path class="st0" d="M25.7,38.3c-0.4-0.6-0.8-1.1-1.2-1.6c-2.8-3.8-5.2-7.9-7.3-12.2c-0.8-1.6-0.8-3.2,0.1-4.7
		c1.5-2.7,3-5.5,4.6-8.2c0.7-1.2,1.9-1.8,3.2-2.3c2.3-0.8,4.7-0.9,7.1-0.9c2.3,0,4.6,0.2,6.9,0.9c0.4,0.1,0.8,0.3,1.1,0.4
		c1.1,0.5,1.9,1.3,2.4,2.4c1.1,2.5,2.4,5,3.6,7.5c0.8,1.6,0.8,3.1,0.1,4.8c-2.1,4.9-4.7,9.6-7.9,13.8c-0.1,0.1-0.1,0.2-0.3,0.4
		c0.9,0.8,1.8,1.6,2.8,2.3c3.4,2.7,7.2,4.8,11.3,6.4c1,0.4,1.2,1,0.4,1.7c-1.9,1.9-3.9,3.9-5.8,5.8c-0.6,0.6-0.8,0.6-1.5,0.2
		c-3.5-1.7-6.7-4-9.7-6.5c-1.1-0.9-2.1-1.9-3.1-2.8c-0.1-0.1-0.2-0.2-0.3-0.3c-0.9,0.8-1.8,1.7-2.7,2.5c-3.2,2.8-6.7,5.3-10.5,7.2
		c-0.7,0.4-0.9,0.3-1.5-0.2c-1.9-1.9-3.8-3.8-5.8-5.7c-0.8-0.8-0.8-1.3,0.3-1.8c4.4-2.2,8.6-4.8,12.5-8
		C24.8,39.1,25.2,38.7,25.7,38.3z M42,15.1c-0.4,1.4-0.7,2.7-1.1,3.9c-2.6,7.9-7.4,14.5-13.5,20.1c-3.9,3.5-8.2,6.4-12.8,8.8
		c-0.4,0.2-0.8,0.4-1.3,0.7c0.1,0.2,0.3,0.3,0.4,0.4c1.3,1.3,2.6,2.6,4,4c0.7,0.7,0.7,0.7,1.6,0.2c6.9-3.9,12.6-9.1,17.4-15.3
		c3.4-4.4,6-9.1,8.2-14.2c0.4-1,0.4-2-0.1-2.9c-0.8-1.7-1.6-3.4-2.5-5.2C42.2,15.4,42.1,15.3,42,15.1z M22.1,14.5
		c-1.1,2-2.2,4-3.3,5.9c-0.7,1.2-0.7,2.3-0.1,3.5c1.6,3.1,3.3,6.1,5.2,9c0.9,1.4,1.9,2.8,2.9,4.2c0.1-0.1,0.2-0.1,0.2-0.1
		c1.2-1.2,2.4-2.5,3.6-3.7c0.2-0.3,0.1-0.4-0.1-0.6c-3.2-4.5-5.7-9.5-7.4-14.7C22.8,16.9,22.5,15.8,22.1,14.5z M24.8,17.9
		c5-1.6,9.8-1.6,14.8-0.1c0.3-1.7,0.7-3.4,1-5c0.1-0.5-0.1-0.7-0.5-1c-1-0.7-2-1-3.2-1.2c-3-0.6-6-0.6-9-0.2
		c-1.5,0.2-2.9,0.5-4.2,1.4c-0.4,0.2-0.5,0.5-0.4,1c0.1,0.4,0.2,0.8,0.3,1.1C24.1,15.2,24.4,16.5,24.8,17.9z M31.9,31.8
		c3-3.8,5.4-7.9,7.1-12.5c-4.6-1.4-9-1.3-13.6,0.1C27,23.9,29.2,28,31.9,31.8z M33.2,44.4c1.1,1,2.1,2,3.2,2.9
		c2.7,2.3,5.6,4.4,8.8,6.1c0.3,0.2,0.6,0.2,0.9-0.1c0.8-0.8,1.7-1.7,2.5-2.5c0.7-0.7,1.4-1.4,2.1-2.1c-5.1-2.1-9.6-4.9-13.6-8.6
		C35.8,41.6,34.5,43,33.2,44.4z"/>
	<path class="st1" d="M42,15.1c0.1,0.2,0.2,0.3,0.3,0.5c0.8,1.7,1.6,3.4,2.5,5.2c0.5,1,0.5,1.9,0.1,2.9c-2.1,5.1-4.8,9.8-8.2,14.2
		c-4.8,6.2-10.5,11.4-17.4,15.3c-0.9,0.5-0.9,0.5-1.6-0.2c-1.3-1.3-2.7-2.6-4-4c-0.1-0.1-0.2-0.2-0.4-0.4c0.4-0.2,0.9-0.4,1.3-0.7
		c4.6-2.5,8.9-5.3,12.8-8.8C33.5,33.5,38.2,27,40.8,19C41.3,17.8,41.6,16.5,42,15.1z"/>
	<path class="st1" d="M22.1,14.5c0.4,1.2,0.7,2.4,1.1,3.5c1.7,5.3,4.2,10.2,7.4,14.7c0.1,0.2,0.3,0.4,0.1,0.6
		c-1.2,1.2-2.4,2.5-3.6,3.7c0,0-0.1,0-0.2,0.1c-1-1.4-2-2.7-2.9-4.2c-1.9-2.9-3.6-5.9-5.2-9c-0.6-1.2-0.6-2.4,0.1-3.5
		C19.9,18.5,21,16.6,22.1,14.5z"/>
	<path class="st1" d="M24.8,17.9c-0.4-1.4-0.8-2.7-1.1-4c-0.1-0.4-0.1-0.8-0.3-1.1c-0.2-0.5,0-0.7,0.4-1c1.3-0.9,2.7-1.2,4.2-1.4
		c3-0.4,6-0.4,9,0.2c1.1,0.2,2.2,0.6,3.2,1.2c0.4,0.3,0.6,0.5,0.5,1c-0.3,1.6-0.7,3.3-1,5C34.6,16.3,29.8,16.3,24.8,17.9z"/>
	<path class="st1" d="M33.2,44.4c1.3-1.5,2.6-2.9,3.8-4.3c4,3.7,8.5,6.5,13.6,8.6c-0.7,0.8-1.4,1.4-2.1,2.1
		c-0.8,0.8-1.7,1.6-2.5,2.5c-0.3,0.3-0.5,0.3-0.9,0.1c-3.2-1.7-6.1-3.7-8.8-6.1C35.3,46.4,34.3,45.4,33.2,44.4z"/>
</g>
</svg>
