<?xml version="1.0" encoding="utf-8"?>
<!-- Generator: Adobe Illustrator 23.0.2, SVG Export Plug-In . SVG Version: 6.00 Build 0)  -->
<svg version="1.1" id="Layer_1" xmlns="http://www.w3.org/2000/svg" xmlns:xlink="http://www.w3.org/1999/xlink" x="0px" y="0px"
	 width="64px" height="64px" viewBox="0 0 64 64" style="enable-background:new 0 0 64 64;" xml:space="preserve">
<style type="text/css">
	.st0{fill:#B7E4F4;}
	.st1{fill:#1D8DCD;}
</style>
<g>
	<path class="st0" d="M49.1,8.8c0,0-11-4.3-24.2,0c0,0-13.3,20.2-8.8,28.9l16,18.3c0,0,5.5-3.5,13.4-3c0,0-0.1-11.7-9-16.9
		c0,0-4.4-3-0.2-7.2C36.4,28.8,49.7,18.7,49.1,8.8z"/>
	<path class="st1" d="M13.5,32.8c0.1-2.9,0.8-5.6,1.9-8.2c2-4.7,4.4-9.2,6.8-13.8c0.4-0.8,0.8-1.6,1.3-2.4C23.9,7.7,24.3,7.6,25,8
		c0.2,0.1,0.4,0.2,0.6,0.3c0.8,0.5,0.9,0.8,0.5,1.6c-1,1.9-2.1,3.9-3.1,5.8c-1.7,3.5-3.4,6.9-5,10.5c-0.9,1.9-1.3,3.9-1.4,5.9
		c-0.2,2.4,0.6,4.5,2.2,6.3c2.8,3.3,5.7,6.6,8.6,9.9c1.9,2.1,3.8,4.2,5.7,6.4c0.5,0.5,0.5,0.9,0,1.4c-0.2,0.2-0.4,0.4-0.7,0.6
		c-0.6,0.5-1,0.5-1.5-0.1c-1.2-1.3-2.4-2.6-3.6-4c-3-3.4-6.1-6.8-9.1-10.3c-1.4-1.6-2.7-3.1-3.6-5.1C13.8,35.9,13.6,34.3,13.5,32.8z
		"/>
	<path class="st1" d="M44.1,52.5c-0.1-3.6-1.2-6.8-3.1-9.8c-1.5-2.3-3.4-4.2-5.5-5.9c-1.2-0.9-2.1-2-2.4-3.5
		c-0.4-2.1,0.4-3.8,1.9-5.1c1.9-1.7,3.9-3.2,5.7-4.9c3.5-3.5,5.6-7.7,6.6-12.5c0.1-0.4,0.1-0.8,0.2-1.2C47.7,9,48,8.7,48.5,8.7
		c0.4,0,0.9,0.1,1.3,0.1c0.5,0.1,0.8,0.5,0.7,1.2c-0.3,1.3-0.6,2.6-0.9,3.8c-1.7,5.8-5.2,10.5-9.9,14.3c-0.9,0.7-1.8,1.4-2.7,2.2
		c-0.3,0.2-0.5,0.5-0.7,0.8c-0.6,0.9-0.6,1.7,0.1,2.5c0.5,0.6,1.2,1.1,1.8,1.6c4.1,3.5,7,7.6,8.3,12.9c0.4,1.6,0.6,3.2,0.5,4.9
		c0,0.7-0.3,0.9-1,0.9c-0.4,0-0.9,0-1.3-0.1c-0.2-0.1-0.4-0.4-0.5-0.6C44.1,53,44.1,52.7,44.1,52.5z"/>
	<g>
		<path class="st1" d="M25,39.2c0.2-0.4,0.2-0.8,0.4-1.1c0.8-0.8,1.6-1.7,2.5-2.3c1.6-1.1,3.6-0.2,3.9,1.8c0.1,0.5,0.1,1.1,0.2,1.6
			c0.2,0.6,0.4,1.2,0.8,1.6c2.1,2.5,4.2,5,6.3,7.5c0.3,0.4,0.7,0.7,1,1.1c0.4,0.4,0.4,0.8,0,1.2c-0.4,0.4-0.9,0.8-1.4,1.1
			c-0.4,0.3-0.9,0.2-1.3-0.2c-1.7-1.9-3.4-3.7-5.1-5.6c-1.5-1.6-3.1-3.1-5.1-4.1c-0.6-0.3-1.1-0.8-1.6-1.3
			C25.3,40.1,25.1,39.6,25,39.2z"/>
		<path class="st1" d="M29.2,19.3c0,1,0,1.8,0,2.7c0.4-0.3,0.8-0.5,1.2-0.7c0,0.4,0,0.7,0,1.1c0.3-0.2,0.6-0.3,1-0.6
			c-0.2,0.3-0.2,0.4-0.3,0.6c-0.5,1-1.2,2-1.6,3c-0.6,1.4-0.2,2.9,0.2,4.3c0.2,0.6,0.4,1.2,0.4,1.9c0.1,1.7-0.7,2.6-2.4,2.7
			c-2,0.1-3.5-0.8-4.5-2.5c-1-1.6-0.8-3.3,0.2-4.8c1.7-2.5,3.5-4.9,5.3-7.4C28.8,19.5,29,19.5,29.2,19.3z"/>
		<path class="st1" d="M32.1,19.9c0-0.4,0.1-0.6,0.1-1c-0.6,0.4-1.1,0.7-1.6,1c-0.3-0.7,0.2-1.5-0.3-2.3c1.1-1.6,2.3-3.2,3.5-4.9
			c0.5-0.8,1.1-1.5,1.6-2.3c0.4-0.5,0.8-0.6,1.3-0.3c0.7,0.5,1.3,1,1.9,1.5c0.4,0.4,0.4,1,0,1.4C37,15,35.3,17,33.6,18.9
			C33.2,19.3,32.6,19.6,32.1,19.9z"/>
		<path class="st1" d="M22.9,39c-0.9,0-1.7-0.4-2.1-1.2C20.3,37,20,36,19.7,35c-0.2-0.9,0.1-1.8,0.7-2.6c0.4-0.6,1-0.8,1.5-0.6
			c0.5,0.2,0.9,0.8,0.9,1.4c0,0.4-0.1,0.8-0.2,1.2c-0.1,0.8,0,1.1,0.7,1.4c0.2,0.1,0.5,0.2,0.7,0.3c0.5,0.3,0.9,0.7,0.8,1.3
			c-0.1,0.7-0.5,1-1.1,1.3C23.5,39,23.2,39,22.9,39z"/>
	</g>
</g>
</svg>
