<?xml version="1.0" encoding="utf-8"?>
<!-- Generator: Adobe Illustrator 23.0.2, SVG Export Plug-In . SVG Version: 6.00 Build 0)  -->
<svg version="1.1" id="Layer_1" xmlns="http://www.w3.org/2000/svg" xmlns:xlink="http://www.w3.org/1999/xlink" x="0px" y="0px"
	 width="64px" height="64px" viewBox="0 0 64 64" style="enable-background:new 0 0 64 64;" xml:space="preserve">
<style type="text/css">
	.st0{fill:#B7E4F4;}
	.st1{fill:#1D8DCD;}
</style>
<g>
	<path class="st0" d="M10,31.8c0,0-3,9.5-1.5,20c0,0,11,3,15.5-2.5c0,0,3.5-10.4,3.5-14.4c0,0,0-9-0.1-12.1
		c-0.1-2.4-2.4-6.9-9.4-2.9s0,0,0,0S10.5,26.3,10,31.8z"/>
	<path class="st0" d="M54.1,31.3c0,0,3,9.5,1.5,20c0,0-11,3-15.5-2.5c0,0-3.5-10.4-3.5-14.4c0,0,0-9,0.1-12.1
		c0.1-2.4,2.4-6.9,9.4-2.9s0,0,0,0S53.6,25.8,54.1,31.3z"/>
	<g>
		<path class="st1" d="M7,43.5c0.1-1,0.1-1.9,0.2-2.9c0.4-4.8,1.2-9.5,3.4-13.8c2.4-4.7,6.2-8,11.3-9.5c0.7-0.2,1.6-0.3,2.3-0.2
			c1.6,0.2,2.7,1.4,3,3.3c0.2,1.4,0.2,2.8,0.2,4.2c0,0.1-0.1,0.3-0.2,0.4c-0.7,0.5-1.3,0.9-2.1,1.4c0-0.3,0-0.4,0-0.6
			c0-1.6-0.1-3.2-0.1-4.8c0,0,0-0.1,0-0.1c-0.2-1.4-0.9-1.8-2.2-1.5c-2.8,0.7-5.2,2.2-7.2,4.3c-2.7,2.8-4.2,6.2-5.1,9.9
			c-1,4.2-1.3,8.4-1.3,12.7c0,1.3,0,2.6,0,3.9c0,0.2,0,0.3,0,0.5c1.1,0.1,2.1,0.3,3.2,0.3c1.9,0.2,3.8,0.3,5.7,0
			c3.7-0.6,5.4-2.2,6.3-5.9c0.7-2.9,0.8-5.9,0.8-8.8c0-0.6,0.2-1,0.7-1.2c0.5-0.3,1-0.6,1.5-1c0,0.1,0.1,0.2,0.1,0.2
			c0.1,3.5,0.1,7-0.6,10.4c-0.3,1.6-0.8,3.1-1.6,4.6c-1.4,2.3-3.6,3.4-6.2,3.9c-2.8,0.5-5.5,0.3-8.3,0C10.1,53.2,9.3,53,8.4,53
			c-0.8-0.1-1.2-0.4-1.4-1.1C7,49.1,7,46.3,7,43.5z"/>
		<path class="st1" d="M57,51.9c-0.2,0.7-0.7,1-1.4,1.1c-3,0.4-6,0.8-9.1,0.5c-1.1-0.1-2.3-0.3-3.4-0.6c-3.1-1-4.8-3.3-5.6-6.3
			c-0.6-2.2-0.9-4.4-1-6.7c-0.1-1.7,0-3.4,0-5.2c0-0.1,0-0.3,0-0.5c0.7,0.5,1.4,0.9,2.1,1.4c0.1,0.1,0.1,0.3,0.1,0.4
			c0.1,2.1,0.1,4.3,0.3,6.4c0.1,1.6,0.4,3.2,1.1,4.7c0.9,2.2,2.6,3.4,4.9,3.9c2.2,0.4,4.3,0.3,6.5,0.1c1-0.1,2.1-0.2,3.1-0.3
			c0-0.2,0-0.3,0-0.4c0-3,0-5.9-0.1-8.9c-0.2-4.2-0.9-8.4-2.6-12.3c-1.7-4-4.4-7.2-8.4-9c-0.9-0.4-1.9-0.7-2.9-0.9
			c-0.8-0.2-1.3,0.2-1.5,1c-0.1,0.5-0.2,1-0.2,1.5c0,1.4,0,2.9,0,4.4c-0.8-0.5-1.5-1-2.2-1.5c-0.1,0-0.1-0.2-0.1-0.2
			c0.1-1.5,0-3,0.3-4.5c0.5-2.6,2.3-3.7,4.9-3c3.6,0.9,6.6,2.9,9,5.6c2.5,2.9,4,6.4,5,10.1c0.8,3.1,1.2,6.3,1.3,9.6
			c0,0.3,0.1,0.6,0.1,1C57,46.3,57,49.1,57,51.9z"/>
		<path class="st1" d="M44.9,39.6c-0.2,1.1-0.4,2.2-0.6,3.2c-0.1,0.3-0.2,0.6-0.3,1c-0.2,0.4-0.6,0.6-1,0.4c-0.3-0.2-0.4-0.5-0.3-1
			c0.2-0.7,0.5-1.4,0.6-2.1c0.1-1,0.1-2,0.1-3c0-0.2-0.2-0.5-0.3-0.6c-1.9-2-4-3.6-6.3-5.1c-1.4-1-2.9-1.9-4.3-2.9
			c-0.2-0.2-0.5-0.2-0.7,0c-2.9,1.9-5.8,3.8-8.5,6c-0.8,0.6-1.5,1.3-2.2,2c-0.2,0.2-0.3,0.4-0.3,0.6c-0.2,1.7-0.1,3.3,0.5,4.9
			c0.1,0.2,0.2,0.4,0.1,0.6c-0.1,0.2-0.3,0.5-0.5,0.6c-0.3,0.1-0.7,0-0.8-0.4c-0.3-1-0.5-1.9-0.8-2.9c-0.1-0.4-0.1-0.8-0.2-1.4
			c-0.2,0.2-0.3,0.2-0.4,0.4c-1.3,1.5-2.5,3.1-3.8,4.6c0,0-0.1,0.1-0.1,0.1c-0.4,0.4-0.8,0.5-1.1,0.3c-0.3-0.3-0.3-0.7,0-1.1
			c2.1-2.6,4.2-5.3,6.6-7.6c1.7-1.6,3.5-3.1,5.4-4.4c1.8-1.3,3.7-2.5,5.6-3.8c0.5-0.3,0.9-0.4,1.3-0.1c3.1,2.1,6.3,4.1,9.1,6.5
			c2,1.7,3.8,3.6,5.5,5.6c1,1.2,2,2.4,2.9,3.6c0.1,0.1,0.1,0.2,0.2,0.2c0.2,0.4,0.2,0.8-0.1,1c-0.3,0.2-0.7,0.2-1-0.2
			c-0.8-0.9-1.5-1.8-2.2-2.8c-0.6-0.7-1.2-1.4-1.8-2.1C45.2,39.8,45.1,39.7,44.9,39.6z"/>
		<path class="st1" d="M44.8,32.8c0.1,0.1,0.2,0.2,0.3,0.3c2,1.8,3.7,3.8,5.4,5.9c0.3,0.4,0.3,0.8,0,1.1c-0.3,0.3-0.7,0.2-1.1-0.2
			c-1.4-1.6-2.7-3.2-4.2-4.7c-2.2-2.3-4.8-4.1-7.4-5.8c-1.2-0.8-2.5-1.7-3.7-2.5c-0.9-0.6-1.3-1.3-1.3-2.3c0-4.4,0-8.7,0-13.1
			c0-0.3,0.1-0.7,0.3-0.8c0.4-0.4,1.1,0,1.1,0.7c0,0.6,0,1.2,0,1.9c0,3.9,0,7.7,0,11.6c0,0.5,0.2,0.8,0.6,1c2.1,1.4,4.2,3,6.4,4.3
			c2.4,1.4,4.9,1.8,7.5,0.6c0.5-0.2,0.9-0.2,1.1,0.2c0.2,0.4,0.1,0.7-0.4,1c-1.2,0.7-2.5,0.9-3.8,0.9c-0.2,0-0.5,0-0.7,0
			C44.8,32.7,44.8,32.7,44.8,32.8z"/>
		<path class="st1" d="M19.3,32.7c-0.9-0.1-1.8,0-2.5-0.2c-0.8-0.2-1.5-0.5-2.3-0.8c-0.3-0.2-0.5-0.5-0.3-0.9c0.2-0.4,0.6-0.5,1-0.3
			c2.2,1.2,4.5,1,6.7,0c1-0.4,1.8-1.1,2.7-1.7c1.5-1,3-2,4.5-3c0.5-0.3,0.6-0.6,0.6-1.2c0-4.3,0-8.6,0-12.9c0-0.3,0-0.6,0.1-0.8
			c0.1-0.2,0.4-0.4,0.6-0.4c0.2,0,0.5,0.2,0.6,0.4c0.1,0.1,0.1,0.4,0.1,0.6c0,4.3,0,8.6,0,13c0,1.1-0.5,1.9-1.4,2.5
			c-2.4,1.6-4.7,3.2-7.1,4.8c-2.8,2-5.2,4.6-7.4,7.3c-0.2,0.3-0.4,0.5-0.7,0.8c-0.3,0.4-0.7,0.5-1.1,0.2c-0.3-0.3-0.3-0.7,0-1.1
			c1.2-1.4,2.4-2.7,3.6-4.1c0.6-0.6,1.2-1.2,1.8-1.8C19,33,19.1,32.9,19.3,32.7z"/>
	</g>
</g>
</svg>
