<?xml version="1.0" encoding="utf-8"?>
<!-- Generator: Adobe Illustrator 23.0.2, SVG Export Plug-In . SVG Version: 6.00 Build 0)  -->
<svg version="1.1" id="Layer_1" xmlns="http://www.w3.org/2000/svg" xmlns:xlink="http://www.w3.org/1999/xlink" x="0px" y="0px"
	 width="64px" height="64px" viewBox="0 0 64 64" style="enable-background:new 0 0 64 64;" xml:space="preserve">
<style type="text/css">
	.st0{fill:#B7E4F4;}
	.st1{fill:#1D8DCD;}
</style>
<g>
	<ellipse class="st0" cx="32" cy="48.2" rx="9.5" ry="5.7"/>
	<path class="st0" d="M39.9,17.4c0,0,2.1,4.1,0.4,10.6c0,0-2.2,7.4,7,7.5c0,0,10.2-3.8,8.1-18.5c0,0-2.3-10.3-11.3-8.4
		C44.1,8.6,38.3,7.8,39.9,17.4z"/>
	<path class="st0" d="M24.2,17.2c0,0-2.1,4.1-0.4,10.6c0,0,2.2,7.4-7,7.5c0,0-10.2-3.8-8.1-18.5c0,0,2.3-10.3,11.3-8.4
		C20,8.4,25.9,7.6,24.2,17.2z"/>
	<path class="st1" d="M56.9,21.5c0,1-0.1,2-0.3,3c-0.6,3.2-1.8,6.2-4,8.7c-1.3,1.6-3,2.8-5,3.3c-3.8,0.9-8-1.8-8.8-5.6
		c-0.3-1.3-0.2-2.5,0.5-3.7c0.2-0.4,0.6-0.6,1-0.5c0.6,0.1,1.1,0.3,1.7,0.5c-1.9,2.4-0.7,5.3,1.7,6.5c1.9,1,3.8,0.9,5.5-0.4
		c1.7-1.2,2.8-2.8,3.7-4.7c1.7-3.7,2.4-7.5,1.3-11.5c-0.7-2.6-2-4.8-4.2-6.4c-1.6-1.2-3.4-1.6-5.3-1.1c-3,0.8-4.6,3.3-3.8,6.4
		c0.1,0.4,0.2,0.8,0.4,1.2c-0.7,0.3-1.3,0.6-2.1,0.9c-0.5-1-0.7-2-0.8-3.1c-0.2-3.1,1.6-5.9,4.4-7.2c3.1-1.5,6.8-0.6,9.3,1.6
		C55.6,12.4,57.1,16.9,56.9,21.5z"/>
	<path class="st1" d="M18.5,7.1c3.3,0.2,6.3,2.5,7,5.7c0.4,1.8,0.1,3.5-0.6,5.2c-0.7-0.3-1.4-0.6-2.1-0.9c0.1-0.4,0.2-0.7,0.3-1.1
		c1-4-2-7.3-6-6.6c-2,0.3-3.5,1.3-4.7,2.8c-2.2,2.7-3.1,5.8-3,9.2c0.1,3,1,5.9,2.5,8.5c1,1.6,2.2,3,3.9,3.9c2.8,1.4,5.9-0.5,6.8-2.3
		c0.7-1.4,0.6-2.6-0.5-4.4c0.6-0.2,1.1-0.4,1.7-0.5c0.4-0.1,0.8,0.1,1,0.5c0.9,1.7,0.8,3.5,0,5.2c-1.4,3.1-6.5,6-11.1,2.8
		c-1.9-1.3-3.3-3.1-4.3-5.2C6.4,24.3,6,17.2,9.8,11.8c1.9-2.7,5-4.8,8.4-4.7C18.3,7,18.4,7,18.5,7.1z"/>
	<path class="st1" d="M33,57c-0.5-0.2-0.6-0.6-0.6-1.1c0-0.3,0-0.5,0-0.8c0-1.3,0.6-1.9,1.8-2.2c1.2-0.3,2.3-0.7,3.4-1.2
		c1.4-0.7,2.4-1.8,2.8-3.3c0.5-1.8-0.1-3-1.7-3.7c-0.7-0.3-1.5-0.5-2.3-0.7c-0.7-0.2-0.9-0.4-0.9-1.1c0-4.3,0-8.5,0-12.8
		c0-3.7,1.6-6.4,4.9-8c0.8-0.4,1.6-0.7,2.4-1c1-0.4,2-0.7,2.9-1.2c1.7-0.7,3-1.9,4.1-3.3c0,0,0-0.1,0.1-0.1c0.4-0.5,0.8-0.6,1.2-0.3
		c0.4,0.3,0.4,0.8,0.1,1.2c-0.7,0.8-1.4,1.7-2.2,2.3c-0.9,0.7-1.9,1.2-2.9,1.7c-0.2,0.1-0.4,0.2-0.7,0.3c0.4,0.1,0.7,0.2,1,0.3
		c1.5,0.4,2.9,1,4.1,2c0.2,0.2,0.4,0.5,0.4,0.8c0,0.6-0.7,0.9-1.2,0.5c-1.5-1.2-3.2-1.8-5-2.1c-0.9-0.2-1.9-0.1-2.9,0
		c-0.2,0-0.5,0.2-0.9,0.3c0.3,0.1,0.4,0.1,0.6,0.2c1.6,0.5,3,1.4,4.1,2.7c0.1,0.1,0.2,0.3,0.3,0.4c0.2,0.4,0.1,0.9-0.3,1.1
		c-0.4,0.2-0.8,0.1-1-0.3c-0.8-1.2-2-2.1-3.4-2.4c-0.6-0.1-1.2-0.1-1.8-0.1c-0.6,0.1-1.1,0.5-1.5,1.1c-0.5,1-0.9,2.1-0.9,3.3
		c0,4.2,0,8.4,0,12.6c0,0.3,0.1,0.4,0.4,0.4c0.7,0.2,1.3,0.4,1.9,0.7c2.4,1.1,3.3,3,2.5,5.6c-0.5,1.6-1.5,2.9-2.9,3.8
		c-1.3,0.9-2.8,1.4-4.3,1.7C34,54.5,34,54.5,34,55.3c0,0.2,0,0.4,0,0.6c0.1,0.5-0.1,0.9-0.6,1.1C33.3,57,33.1,57,33,57z"/>
	<path class="st1" d="M30.7,57c-0.5-0.2-0.6-0.6-0.6-1.1c0-1.6,0.2-1.3-1.3-1.6c-1.5-0.4-3-0.9-4.2-1.9c-1.7-1.3-2.6-3-2.7-5.1
		c0-1.3,0.5-2.3,1.5-3.1c0.9-0.8,2-1.2,3.2-1.4c0.3-0.1,0.4-0.2,0.4-0.5c0-4,0-8.1,0-12.1c0-1-0.2-2.1-0.6-3
		c-0.7-1.6-1.9-2.2-3.6-1.7c-1.4,0.4-2.5,1.2-3.3,2.4c-0.3,0.5-0.7,0.6-1.1,0.3c-0.4-0.3-0.5-0.7-0.2-1.2c1.1-1.6,2.5-2.5,4.3-3.1
		c0.2,0,0.3-0.1,0.5-0.3c-0.4-0.1-0.8-0.3-1.3-0.3c-2.7-0.1-5.1,0.6-7.2,2.1c-0.5,0.4-0.9,0.4-1.2,0C13,24.9,13,24.4,13.5,24
		c1.3-1.1,2.9-1.7,4.5-2.1c0.2,0,0.3-0.1,0.6-0.2c-0.2-0.1-0.4-0.2-0.5-0.3c-2.2-0.9-3.9-2.3-5.3-4.2c-0.3-0.4-0.3-0.9,0.1-1.1
		c0.3-0.3,0.8-0.2,1.1,0.2c1.5,2.2,3.7,3.4,6.2,4.3c1.2,0.4,2.4,0.9,3.5,1.5c3.1,1.5,4.6,4.1,4.7,7.5c0.1,4.5,0,8.9,0,13.4
		c0,0.5-0.3,0.7-0.8,0.9c-0.8,0.2-1.6,0.4-2.3,0.7c-1.7,0.7-2.2,2-1.7,3.7c0.4,1.5,1.4,2.7,2.8,3.3c1.1,0.5,2.2,0.9,3.4,1.2
		c1.3,0.3,1.8,0.9,1.8,2.2c0,0.3,0,0.5,0,0.8c0.1,0.5-0.1,0.8-0.6,1.1C30.9,57,30.8,57,30.7,57z"/>
	<path class="st1" d="M33.2,42.1c0-0.2,0-0.4,0-0.5c0-3.9,0-7.7,0-11.6c0-1.5,0.2-3,0.7-4.5c0.6-1.9,1.7-3.4,3.3-4.5
		c0.2-0.1,0.3-0.2,0.5-0.4c-0.2-0.1-0.3-0.2-0.4-0.3c-0.3-0.4-0.7-0.8-1-1.3c-0.3-0.5-0.1-1,0.4-1.1c0.4-0.2,0.8,0,1,0.6
		c0.4,0.9,1.5,1.4,2.4,1c1.1-0.5,2.2-1,3.2-1.6c1.1-0.6,2-1.5,2.5-2.7c0.2-0.5,0.6-0.6,1-0.4c0.4,0.2,0.5,0.6,0.3,1.1
		c-0.5,1.3-1.4,2.3-2.6,3c-1.1,0.7-2.3,1.2-3.5,1.8c-0.6,0.3-1.3,0.6-1.9,1c-2.7,1.5-4.2,3.8-4.4,6.9c-0.2,2.7-0.1,5.4-0.1,8.1
		c0,2.1,0,4.1,0,6.2c0,0.8-0.3,1-1,1c-1.1,0-2.3,0-3.4,0c-0.7,0-1-0.3-1-1c0-4.1,0-8.2,0-12.3c0-1.4-0.1-2.8-0.5-4.1
		c-0.6-2.1-2-3.7-3.9-4.7c-1.1-0.6-2.2-1-3.3-1.6c-1-0.5-1.9-1-2.9-1.7c-0.9-0.6-1.5-1.5-1.9-2.5c-0.2-0.5-0.1-0.9,0.3-1.1
		c0.4-0.2,0.8,0,1,0.4c0.6,1.3,1.5,2.2,2.8,2.8c1.1,0.6,2.3,1.1,3.4,1.6c0.6,0.3,1.7-0.3,2-1c0-0.1,0.1-0.2,0.1-0.3
		c0.2-0.4,0.6-0.5,0.9-0.4c0.4,0.1,0.6,0.5,0.5,0.9c-0.2,0.7-0.6,1.2-1.1,1.6c-0.1,0.1-0.3,0.2-0.4,0.3c3.5,2.3,4.4,5.7,4.4,9.6
		c0,3.8,0,7.6,0,11.4c0,0.2,0,0.3,0,0.5C31.6,42.1,32.4,42.1,33.2,42.1z"/>
	<path class="st1" d="M25.1,47.7H39c-0.1,0.8-0.5,1.4-1.1,1.9c-0.9,0.8-1.9,1.2-3,1.5c-0.4,0.1-0.9,0.2-1.3,0.3
		c-0.4,0.1-0.9,0.3-1.3,0.5c-0.2,0.1-0.4,0.1-0.6-0.1c-0.6-0.4-1.5-0.5-2.3-0.7c-1.1-0.3-2.2-0.7-3.1-1.5
		C25.6,49.2,25.2,48.6,25.1,47.7z"/>
</g>
</svg>
