<?xml version="1.0" encoding="utf-8"?>
<!-- Generator: Adobe Illustrator 23.0.2, SVG Export Plug-In . SVG Version: 6.00 Build 0)  -->
<svg version="1.1" id="Layer_1" xmlns="http://www.w3.org/2000/svg" xmlns:xlink="http://www.w3.org/1999/xlink" x="0px" y="0px"
	 width="64px" height="64px" viewBox="0 0 64 64" style="enable-background:new 0 0 64 64;" xml:space="preserve">
<style type="text/css">
	.st0{fill:#B7E4F4;}
	.st1{fill:#1D8DCD;}
</style>
<g>
	<path class="st0" d="M22.2,12.7c0,0,7.4,3.2,17.5-0.5c0,0-2.1,7.9,8,22.4c0,0,9.4,14-6,16c0,0-8.6,5.8-22,0c0,0-13.5,0.4-6.9-15.4
		C12.8,35.2,24.1,23.9,22.2,12.7z"/>
	<path class="st1" d="M25.2,14.1c-0.2,4-0.8,7.9-2.6,11.6c-0.8,1.7-1.8,3.3-2.8,4.8c-1.6,2.3-3.2,4.5-4.4,7.1
		c-0.9,1.9-1.5,3.8-1.5,6c0.1,3.6,2.8,5.9,6.4,5.4c0.3,0,0.6-0.1,0.8-0.1c0.9,0.1,1.6,0.8,1.6,1.7c0.1,0.9-0.5,1.7-1.5,1.9
		c-2.4,0.5-4.8,0.2-6.9-1.2c-3.2-2.1-4.3-5.1-4.1-8.8c0.2-3.2,1.4-6,3-8.7c1.4-2.2,2.9-4.3,4.3-6.5c2.2-3.2,3.3-6.9,3.7-10.7
		c0.1-1.2,0.2-2.5,0.2-3.8c0.1-1.3,1-2.1,2.2-1.9c0.8,0.2,1.4,0.8,1.4,1.7C25.2,13.1,25.2,13.6,25.2,14.1z"/>
	<path class="st1" d="M50.1,43.1c0-2.3-0.7-4.4-1.9-6.3c-1.1-2-2.4-3.9-3.6-5.7c-1.8-2.6-3.4-5.3-4.4-8.4c-1-3.3-1.4-6.6-1.4-10
		c0-1,0.8-1.8,1.7-1.8c0.9,0,1.7,0.6,1.8,1.6c0.1,1,0.1,1.9,0.2,2.9c0.3,4.8,1.7,9.2,4.6,13.1c1.8,2.5,3.5,5,4.8,7.8
		c1.1,2.3,1.8,4.8,1.7,7.4c-0.1,4.6-3,8.1-7.6,9c-1.2,0.2-2.3,0.2-3.5-0.1c-1-0.2-1.6-1.1-1.4-2.2c0.2-0.9,1.1-1.6,2.1-1.4
		c1.5,0.2,2.9,0.1,4.2-0.7C49.5,47,50.2,45.2,50.1,43.1z"/>
	<path class="st1" d="M21.7,42.1c1.6,0,2.6,0.6,3.5,1.5c0.6,0.6,1.1,1.3,1.7,2c1,1.1,2.2,1.8,3.7,1.9c1.1,0.1,2.2,0.1,3.3-0.1
		c1.6-0.2,2.8-1.1,3.8-2.3c0.4-0.5,0.8-1,1.3-1.5c1.7-1.8,3.7-1.9,5.8-0.8c0.8,0.4,1.1,1.4,0.7,2.3c-0.4,0.9-1.4,1.4-2.2,1
		c-1.4-0.6-1.4-0.3-2.2,0.7c-0.9,1.1-1.9,2.2-3.2,3c-2.1,1.3-4.4,1.6-6.8,1.4C29,51,27,50.4,25.4,49c-0.9-0.8-1.7-1.8-2.5-2.7
		c-0.7-0.7-0.7-0.8-1.6-0.4c-1.1,0.4-2.1,0.1-2.5-0.9c-0.4-1,0-2,1.1-2.4C20.6,42.4,21.3,42.2,21.7,42.1z"/>
	<path class="st1" d="M28.6,29.9c-1.2,3.1-2.4,6.1-2.1,9.5c-1.5,0.2-2.9,0.4-4.5,0.7c-0.6-4.3,0.8-8.1,2.3-11.9
		C25.8,28.7,27.1,29.3,28.6,29.9z"/>
</g>
</svg>
