<?xml version="1.0" encoding="utf-8"?>
<!-- Generator: Adobe Illustrator 23.0.2, SVG Export Plug-In . SVG Version: 6.00 Build 0)  -->
<svg version="1.1" id="Layer_1" xmlns="http://www.w3.org/2000/svg" xmlns:xlink="http://www.w3.org/1999/xlink" x="0px" y="0px"
	 width="64px" height="64px" viewBox="0 0 64 64" style="enable-background:new 0 0 64 64;" xml:space="preserve">
<style type="text/css">
	.st0{fill:#B7E4F4;}
	.st1{fill:#1D8DCD;}
</style>
<g>
	<path class="st0" d="M34.8,6.8c0,0-13.2-1.7-19,15.7c0,0,1.7,5-4.1,11.6c0,0-2.5,3.3,3.3,4.1v5c0,0,0.8,1.7,0,5
		c0,0-2.5,2.5,10.7,4.1c0,0,2.5-0.8,4.1,5c0,0,7.4-3.3,21.5-1.7c0,0-7.4-9.9-3.3-17.3c0,0,10.7-16.5,0-25.6
		C48.1,12.6,46.4,7.6,34.8,6.8z"/>
	<path class="st1" d="M30.1,58c-0.5-0.2-0.8-0.6-1-1.1c-0.3-0.6-0.6-1.2-0.9-1.8c-0.6-1.1-1.5-1.6-2.7-1.8c-2.2-0.3-4.3-0.7-6.5-1.1
		c-0.9-0.2-1.8-0.6-2.6-1c-1.8-0.9-2.5-2.4-2-4.3c0.1-0.4,0.2-0.8,0.3-1.2c0.1-0.4,0-0.7-0.4-0.9c-1.2-0.5-1.4-1.3-0.5-2.3
		c-0.7-0.7-0.8-1-0.4-1.9c0.2-0.4,0.4-0.9,0.6-1.4c-0.6-0.1-1.2-0.3-1.8-0.4c-1.5-0.4-2.4-1.5-2.2-2.9c0.1-0.4,0.2-0.9,0.4-1.2
		c1.2-2.1,2.4-4.1,3.6-6.1c0.1-0.1,0.1-0.2,0.1-0.3c0.6-1,0.9-1.9,0.7-3.1c-0.5-4.3,1.2-8,3.9-11.2c3.4-4.1,7.8-6.7,13.2-7.7
		c0.6-0.1,1.1-0.2,1.7-0.3c0.8,0,1.7,0,2.5,0c1,0.1,2,0.2,3,0.4c6,1.2,10.7,4.2,13.5,9.7c1.6,3,2,6.3,1.7,9.7
		c-0.3,3.7-1.8,7-3.6,10.2c-0.7,1.3-1.4,2.7-2,4.1c-1.1,2.4-1,4.9,0,7.4c1,2.5,2.3,4.8,3.7,7c0.2,0.3,0.3,0.5,0.5,0.8
		c0.3,0.6,0,1.2-0.5,1.5c-0.5,0.3-1.2,0.2-1.5-0.3c-2.1-3.3-4.1-6.7-5.1-10.5c-0.6-2.5-0.1-4.9,0.9-7.2c0.7-1.7,1.6-3.2,2.4-4.8
		c1.1-2.2,2.2-4.4,2.6-6.8c1.4-7.8-2.4-14.6-9.8-17.4c-10.1-3.8-19.3,1.4-23.2,8.4c-1.3,2.3-1.9,4.8-1.4,7.4
		c0.1,0.9-0.1,1.7-0.5,2.4c-1,1.9-2,3.7-3,5.5c-0.5,0.9-1,1.8-1.6,2.7c0.3,0.1,0.5,0.2,0.7,0.3c0.9,0.2,1.7,0.4,2.6,0.5
		c1.1,0.2,1.5,0.8,1.1,1.9c-0.2,0.6-0.4,1.1-0.6,1.8c0.7,0.1,1.3,0.2,1.9,0.3c0.8,0.1,1.3,0.6,1.2,1.3c0,0.7-0.6,1.2-1.4,1.1
		c-0.4,0-0.7-0.1-1.2-0.1c0.9,0.9,0.8,1.9,0.5,2.8c-0.1,0.4-0.2,0.7-0.3,1.1c-0.3,1.1-0.1,1.6,1,2c0.9,0.4,1.9,0.7,2.9,0.9
		c1.9,0.4,3.8,0.6,5.8,0.9c1.6,0.3,2.9,1.1,3.7,2.5c0.5,0.8,0.9,1.6,1.3,2.4c0.5,1.1,0.4,1.5-0.6,2.2C30.5,58,30.3,58,30.1,58z"/>
	<path class="st1" d="M46.7,25.2c0.7,0.8,0.6,1.8,0.3,2.7c-0.6,2-2.1,3-4,3.6c-0.3,0.1-0.4,0.2-0.5,0.5c-0.2,1.1-0.2,2.2,0,3.3
		c0.3,1.5,0.1,3.1-0.3,4.6c-0.6,2.6-1.1,5.3-1,8c0.1,1.9,0.5,3.6,1.5,5.2c0.3,0.5,0.3,0.9-0.1,1.2c-0.4,0.3-0.9,0.1-1.2-0.4
		c-1.2-1.9-1.7-4-1.8-6.3c-0.1-2.8,0.4-5.6,1.1-8.4c0.3-1.1,0.5-2.3,0.3-3.4c-0.1-0.3-0.1-0.7-0.3-0.9c-1.3-1.4-2.5-2.8-3.8-4.2
		c-0.1-0.1-0.4-0.2-0.6-0.2c-0.7,0.1-1.3,0-1.9-0.4c-0.1-0.1-0.3-0.1-0.4,0c-1.6,0.6-4.2,0-5.4-1.3c-0.2-0.2-0.3-0.4-0.4-0.6
		C28,28.2,28,28,27.9,27.7c-0.4,0.1-0.9,0.2-1.3,0.3c-1.5,0.2-2.9-0.5-3.4-1.7c0-0.1-0.1-0.2-0.2-0.2c-1.8-1.4-2.1-3.3-1.6-5.3
		c0.3-1.1,0.8-2.1,1.8-2.8c0.1-0.1,0.2-0.2,0.3-0.3c0.9-2.1,2.7-3.1,4.8-3.5c0.8-0.2,1.5-0.4,2.2-0.8c2-1,4-1,6.1-0.5
		c1.5,0.4,3,0.8,4.5,1.3c1.6,0.5,2.9,1.6,4,2.8c0.9,1,1.4,2.2,2.3,3.3c0.8,1,1,2.3,0.3,3.6C47.4,24.4,47,24.7,46.7,25.2z M40.9,31.8
		c-0.7-0.3-1-0.6-0.8-1.1c0.1-0.5,0.4-0.6,1.2-0.5c1.5,0.2,3.8-1.1,4.2-2.9c0.2-0.8,0-1.3-0.8-1.4c-0.7-0.1-1.4-0.1-2.1,0
		c-1.5,0.3-2.9,0.9-4.3,1.6c-0.5,0.3-0.9,0.2-1.2-0.2c-0.2-0.4-0.1-0.8,0.3-1.1c1.7-1,3.6-1.8,5.6-2c0.6-0.1,1.3,0.1,2,0
		c0.6-0.1,1.3-0.9,1.3-1.6c0.1-0.9-0.4-1.9-1-2.1c-0.4-0.2-0.6-0.4-0.7-0.8c-0.3-0.6-0.6-1.3-1-1.8c-0.9-1-2-1.9-3.4-2.3
		c-1.5-0.5-3.1-0.9-4.6-1.3c-1.6-0.4-3.2-0.3-4.6,0.5c-0.7,0.4-1.4,0.7-2.3,0.8c-1.8,0.3-3.3,1.2-4,3.1c-0.1,0.2-0.2,0.3-0.4,0.4
		c-1,0.5-1.3,1.3-1.5,2.3c-0.2,1-0.2,1.9,0.4,2.8c0.6-0.3,0.9-0.3,1.2,0c0.3,0.3,0.3,0.7,0.2,1.1c-0.1,0.4,0.1,0.8,0.4,1
		c0.9,0.5,2.5,0.1,3-0.8c0.2-0.3,0.3-0.6,0.6-0.8c0.7-0.9,1.6-1.5,2.8-1.4c0.1,0,0.3-0.1,0.4-0.2c0.9-1,2-1.4,3.2-1.6
		c0.3,0,0.5-0.1,0.7-0.4c1.2-1.6,3.5-2.1,5.3-1.5c0.4,0.1,0.6,0.5,0.5,0.9c-0.1,0.4-0.5,0.7-0.9,0.6c-0.2,0-0.5-0.1-0.7-0.1
		c-1.2-0.1-2.4,0.2-3.1,1.3c-0.4,0.6-0.7,0.8-1.4,0.8c-1.2,0-2.2,0.5-2.8,1.5c-0.3,0.5-0.6,0.6-1.2,0.4c-0.4-0.2-0.8-0.1-1.2,0.2
		c-0.3,0.2-0.5,0.5-0.7,0.8c-0.4,0.6-0.3,1.5,0.2,2c0.6,0.6,1.4,0.8,2.2,0.9c0.7,0.1,1.4,0.1,1.9-0.5c0.4-0.4,1-0.2,1.2,0.3
		c0.4,0.7,0.4,0.7,1.1,0.5c0.5-0.2,0.9-0.1,1.2,0.3c1,0.9,1.9,1.9,2.9,2.8c0.1,0.1,0.2,0.2,0.4,0.4C40.9,32.2,40.9,32,40.9,31.8z"/>
	<path class="st0" d="M40.9,31.8c0,0.2-0.1,0.5-0.1,0.8c-0.2-0.2-0.3-0.3-0.4-0.4c-1-0.9-1.9-1.9-2.9-2.8c-0.4-0.4-0.8-0.4-1.2-0.3
		c-0.7,0.3-0.8,0.2-1.1-0.5c-0.3-0.5-0.8-0.7-1.2-0.3c-0.6,0.6-1.2,0.6-1.9,0.5c-0.8-0.1-1.6-0.3-2.2-0.9c-0.5-0.5-0.6-1.4-0.2-2
		c0.2-0.3,0.5-0.6,0.7-0.8c0.3-0.3,0.7-0.4,1.2-0.2c0.6,0.2,0.8,0.1,1.2-0.4c0.7-1,1.6-1.5,2.8-1.5c0.6,0,1-0.2,1.4-0.8
		c0.7-1.1,1.9-1.4,3.1-1.3c0.2,0,0.5,0.1,0.7,0.1c0.4,0.1,0.8-0.2,0.9-0.6c0.1-0.4-0.1-0.8-0.5-0.9c-1.8-0.5-4.1,0-5.3,1.5
		c-0.2,0.3-0.4,0.4-0.7,0.4c-1.3,0.1-2.3,0.6-3.2,1.6c-0.1,0.1-0.3,0.2-0.4,0.2c-1.2-0.1-2.1,0.4-2.8,1.4c-0.2,0.3-0.4,0.6-0.6,0.8
		c-0.5,0.9-2.2,1.3-3,0.8c-0.4-0.2-0.6-0.6-0.4-1c0.1-0.4,0.2-0.8-0.2-1.1c-0.3-0.3-0.6-0.2-1.2,0c-0.6-0.9-0.6-1.8-0.4-2.8
		c0.2-0.9,0.6-1.8,1.5-2.3c0.2-0.1,0.3-0.2,0.4-0.4c0.7-1.9,2.2-2.7,4-3.1c0.8-0.1,1.5-0.4,2.3-0.8c1.4-0.8,3-0.9,4.6-0.5
		c1.6,0.4,3.1,0.8,4.6,1.3c1.3,0.4,2.4,1.3,3.4,2.3c0.5,0.5,0.7,1.2,1,1.8c0.2,0.4,0.3,0.7,0.7,0.8c0.6,0.2,1.1,1.3,1,2.1
		c-0.1,0.7-0.7,1.5-1.3,1.6c-0.7,0.1-1.3-0.1-2,0c-2,0.2-3.9,1-5.6,2c-0.4,0.2-0.5,0.7-0.3,1.1c0.2,0.4,0.7,0.5,1.2,0.2
		c1.4-0.8,2.8-1.4,4.3-1.6c0.7-0.1,1.4-0.1,2.1,0c0.8,0.1,1,0.6,0.8,1.4c-0.4,1.8-2.7,3.1-4.2,2.9c-0.8-0.1-1.1,0.1-1.2,0.5
		C40,31.2,40.2,31.5,40.9,31.8z"/>
</g>
</svg>
